<mxfile host="app.diagrams.net" modified="2023-08-27T10:18:37.976Z" agent="Mozilla/5.0 (Macintosh; Intel Mac OS X 10_15_7) AppleWebKit/537.36 (KHTML, like Gecko) Chrome/115.0.0.0 Safari/537.36" version="21.3.7" etag="HpY2ufoz5BNFcfU-rBsa" type="github">
  <diagram name="Page-1" id="Yfq-H1aVgU74T2RckEph">
    <mxGraphModel>
      <root>
        <mxCell id="0" />
        <mxCell id="1" parent="0" />
      </root>
    </mxGraphModel>
  </diagram>
</mxfile>
